<svg width="247" height="76" viewBox="0 0 247 76" fill="none" xmlns="http://www.w3.org/2000/svg">
<ellipse cx="123.5" cy="38" rx="123.5" ry="38" fill="#FDB64E"/>
<path d="M45.744 31.864C45.744 33.656 45.312 35.336 44.448 36.904C43.616 38.472 42.288 39.736 40.464 40.696C38.672 41.656 36.4 42.136 33.648 42.136H28.032V55H21.312V21.496H33.648C36.24 21.496 38.448 21.944 40.272 22.84C42.096 23.736 43.456 24.968 44.352 26.536C45.28 28.104 45.744 29.88 45.744 31.864ZM33.36 36.712C35.216 36.712 36.592 36.296 37.488 35.464C38.384 34.6 38.832 33.4 38.832 31.864C38.832 28.6 37.008 26.968 33.36 26.968H28.032V36.712H33.36ZM57.2351 21.496V55H50.5151V21.496H57.2351ZM84.3225 35.032V40.696H63.9705V35.032H84.3225ZM103.571 21.496C107.091 21.496 110.179 22.184 112.835 23.56C115.523 24.936 117.587 26.904 119.027 29.464C120.499 31.992 121.235 34.936 121.235 38.296C121.235 41.656 120.499 44.6 119.027 47.128C117.587 49.624 115.523 51.56 112.835 52.936C110.179 54.312 107.091 55 103.571 55H91.8589V21.496H103.571ZM103.331 49.288C106.851 49.288 109.571 48.328 111.491 46.408C113.411 44.488 114.371 41.784 114.371 38.296C114.371 34.808 113.411 32.088 111.491 30.136C109.571 28.152 106.851 27.16 103.331 27.16H98.5789V49.288H103.331ZM143.545 55L136.153 41.944H132.985V55H126.265V21.496H138.841C141.433 21.496 143.641 21.96 145.465 22.888C147.289 23.784 148.649 25.016 149.545 26.584C150.473 28.12 150.937 29.848 150.937 31.768C150.937 33.976 150.297 35.976 149.017 37.768C147.737 39.528 145.833 40.744 143.305 41.416L151.321 55H143.545ZM132.985 36.904H138.601C140.425 36.904 141.785 36.472 142.681 35.608C143.577 34.712 144.025 33.48 144.025 31.912C144.025 30.376 143.577 29.192 142.681 28.36C141.785 27.496 140.425 27.064 138.601 27.064H132.985V36.904ZM163.735 21.496V55H157.015V21.496H163.735ZM200.471 21.496L188.183 55H180.023L167.735 21.496H174.935L184.151 48.136L193.319 21.496H200.471ZM211.22 26.92V35.32H222.5V40.648H211.22V49.528H223.94V55H204.5V21.448H223.94V26.92H211.22Z" fill="#478ECC"/>
</svg>
